<svg xmlns="http://www.w3.org/2000/svg" width="28" height="28" viewBox="0 0 24 24">
  <!-- Body -->
  <path fill="white" d="M17.2 7.1c.5-1.9-.6-3.8-2.5-4.3L9 1.4C7.1.9 5.2 2 4.7 3.9c-.5 1.9.6 3.8 2.5 4.3l5.7 1.4c1.9.5 3.8-.6 4.3-2.5z"></path>
  <path fill="white" d="M18.6 12c.5-1.9-.6-3.8-2.5-4.3L10.4 6.3C8.5 5.8 6.6 6.9 6.1 8.8c-.5 1.9.6 3.8 2.5 4.3l5.7 1.4c1.9.5 3.8-.6 4.3-2.5z"></path>
  <path fill="white" d="M17.2 16.9c.5-1.9-.6-3.8-2.5-4.3L9 11.2c-1.9-.5-3.8.6-4.3 2.5-.5 1.9.6 3.8 2.5 4.3l5.7 1.4c1.9.5 3.8-.6 4.3-2.5z"></path>

  <!-- Play -->
  <path fill="black" d="M11 10.4v3.2l2.7-1.6-2.7-1.6z"></path>
</svg>
